# xmcd
#
# Track frame offsets: 
#        150
#        10744
#        20777
#        31212
#        41947
#        53008
#        65049
#        74734
#        83658
#        97503
#        111124
#        122261
#        136339
#        147999
#        160352
#        170739
#        178758
#        188886
#        198002
#        210540
#        220514
#        229723
#        238451
#        247891
#        258302
#
# Disc length: 3585 seconds
#
# Revision: 0
# Processed by: cddbd v1.5.1PL0 Copyright (c) Steve Scherf et al.
# Submitted via: ExactAudioCopy v0.95a5
#
DISCID=600dff19
DTITLE=Billy Bland - The Very Best Of
DYEAR=2000
DGENRE=Oldies
TTITLE0=Let The Little Girl Dance
TTITLE1=Can't Stop Her From Dancing
TTITLE2=The Fat Man
TTITLE3=Harmony
TTITLE4=Oh You For Me
TTITLE5=You Were Born To Be Loved
TTITLE6=Chicken Hop
TTITLE7=Pardon Me
TTITLE8=I Had A Dream
TTITLE9=Mama Stole The Chicken
TTITLE10=If I Could Be Your Mine
TTITLE11=Little Boy
TTITLE12=What's That
TTITLE13=Chicken In The Basket
TTITLE14=Flo-Open The Door
TTITLE15=Grandma Gave A Party
TTITLE16=Make Believe Lover
TTITLE17=Uncle Bud
TTITLE18=I Cross My Heart
TTITLE19=Do The Bug With Me
TTITLE20=Sweet Thing
TTITLE21=Steady Kind
TTITLE22=Keep Talkin' That Sweet Talk
TTITLE23=All I Want Do Do Is Cry
TTITLE24=I Spend My Life Loving You
EXTD=
EXTT0=
EXTT1=
EXTT2=
EXTT3=
EXTT4=
EXTT5=
EXTT6=
EXTT7=
EXTT8=
EXTT9=
EXTT10=
EXTT11=
EXTT12=
EXTT13=
EXTT14=
EXTT15=
EXTT16=
EXTT17=
EXTT18=
EXTT19=
EXTT20=
EXTT21=
EXTT22=
EXTT23=
EXTT24=
PLAYORDER=
